<svg version="1.1" id="Layer_1" xmlns="http://www.w3.org/2000/svg" xmlns:xlink="http://www.w3.org/1999/xlink" x="0px" y="0px"
	 width="100%" viewBox="0 0 512 512" enable-background="new 0 0 512 512" xml:space="preserve">
<path fill="#0088FF" opacity="1.000000" stroke="none" 
	d="
M225.000000,1.000003 
	C246.020889,1.000000 267.041779,1.000000 288.233826,1.364617 
	C289.419067,2.151437 290.397888,2.786125 291.453003,2.961496 
	C298.525269,4.136973 305.721161,4.760781 312.677704,6.405926 
	C337.428528,12.259199 361.121460,20.858154 383.294159,33.595867 
	C399.498993,42.905167 414.940002,53.322739 428.372650,66.194473 
	C440.272064,77.596939 451.564911,89.803955 461.861542,102.667564 
	C477.599304,122.328835 489.292877,144.540161 497.876221,168.200272 
	C504.308563,185.931122 509.365479,204.106537 511.086090,223.037003 
	C511.150299,223.743484 512.336609,224.347977 513.000000,225.000000 
	C513.000000,246.020889 513.000000,267.041779 512.659912,288.210022 
	C511.592041,291.285858 510.864319,294.214325 509.785522,297.090027 
	C506.390289,294.267181 503.252869,291.592072 500.317932,288.710724 
	C487.092834,275.727112 473.925079,262.685028 460.520935,249.453033 
	C458.864471,248.182053 457.478149,247.036682 455.973358,246.077148 
	C450.164459,242.373123 444.317719,238.728409 438.235840,234.861786 
	C437.630737,234.443314 437.274841,234.224640 436.969421,234.033142 
	C437.019897,234.060318 436.971741,234.164337 436.942810,233.814484 
	C435.790070,232.046371 434.793732,230.500839 433.523773,229.228424 
	C399.551147,195.190125 365.555115,161.175186 331.536102,127.183228 
	C330.261505,125.909660 328.717773,124.905441 327.124817,123.475006 
	C318.073273,119.354057 309.196411,115.533806 300.106934,111.622047 
	C290.198608,135.865021 280.554321,159.322479 271.028259,182.827835 
	C266.176544,194.799255 261.537354,206.856796 256.549255,219.103500 
	C254.848312,222.602127 253.400208,225.872665 251.655472,228.981064 
	C232.118057,209.935028 212.884399,191.043839 193.622849,172.181137 
	C192.089737,170.679779 190.363480,169.375641 188.374985,167.987976 
	C185.983810,169.056290 183.878250,170.006653 181.915222,171.192902 
	C142.126297,195.237457 102.482216,219.526581 62.456280,243.169357 
	C55.469078,247.296585 52.272022,251.589767 53.517349,259.516602 
	C54.064262,262.997864 52.792915,266.924591 57.029392,269.318970 
	C57.524086,269.650726 57.834240,269.798584 58.074322,269.936493 
	C58.004246,269.926544 58.026226,269.786713 58.202919,270.050598 
	C58.953472,270.520325 59.527328,270.726105 60.044525,270.891968 
	C59.987869,270.852020 60.058605,270.732788 60.023926,271.097565 
	C61.513912,273.385773 62.864758,275.482880 64.588211,277.207672 
	C140.480148,353.157654 216.406097,429.073639 292.318634,505.003021 
	C293.962799,506.647522 295.498474,508.400452 296.849548,510.450287 
	C294.681763,510.869080 292.720093,510.772247 290.831818,511.099243 
	C290.132446,511.220398 289.605560,512.337219 289.000000,513.000000 
	C267.979095,513.000000 246.958206,513.000000 225.767853,512.636597 
	C224.751526,511.852051 223.947372,511.231476 223.051437,511.039764 
	C209.252609,508.086609 195.274017,505.808868 181.675354,502.125732 
	C163.761520,497.273834 146.930679,489.569305 130.742401,480.401154 
	C114.921120,471.440765 99.833923,461.334442 86.719902,448.868988 
	C74.536102,437.287750 63.036480,424.810516 52.507027,411.706207 
	C36.528435,391.820160 24.596689,369.412628 16.031963,345.344574 
	C9.758921,327.716461 4.612633,309.773041 2.914604,291.009766 
	C2.849287,290.287994 1.663613,289.667633 0.999998,289.000000 
	C1.000000,267.645782 1.000000,246.291550 1.351823,224.785355 
	C3.132549,217.851532 4.633017,211.083832 5.977784,204.285324 
	C11.386582,176.941055 21.334688,151.273010 35.408222,127.312859 
	C50.078663,102.336487 68.700058,80.573982 90.727264,61.671478 
	C104.651329,49.722637 119.634995,39.367874 135.763077,30.764431 
	C163.102783,16.180195 192.058243,6.409754 222.989136,2.917732 
	C223.722260,2.834965 224.332474,1.663613 225.000000,1.000003 
z"/>
<path fill="#000000" opacity="1.000000" stroke="none" 
	d="
M513.000000,224.531342 
	C512.336609,224.347977 511.150299,223.743484 511.086090,223.037003 
	C509.365479,204.106537 504.308563,185.931122 497.876221,168.200272 
	C489.292877,144.540161 477.599304,122.328835 461.861542,102.667564 
	C451.564911,89.803955 440.272064,77.596939 428.372650,66.194473 
	C414.940002,53.322739 399.498993,42.905167 383.294159,33.595867 
	C361.121460,20.858154 337.428528,12.259199 312.677704,6.405926 
	C305.721161,4.760781 298.525269,4.136973 291.453003,2.961496 
	C290.397888,2.786125 289.419067,2.151437 288.702484,1.364617 
	C363.593719,1.000000 438.187408,1.000000 513.000000,1.000000 
	C513.000000,75.354088 513.000000,149.708389 513.000000,224.531342 
z"/>
<path fill="#000000" opacity="1.000000" stroke="none" 
	d="
M0.999998,289.468658 
	C1.663613,289.667633 2.849287,290.287994 2.914604,291.009766 
	C4.612633,309.773041 9.758921,327.716461 16.031963,345.344574 
	C24.596689,369.412628 36.528435,391.820160 52.507027,411.706207 
	C63.036480,424.810516 74.536102,437.287750 86.719902,448.868988 
	C99.833923,461.334442 114.921120,471.440765 130.742401,480.401154 
	C146.930679,489.569305 163.761520,497.273834 181.675354,502.125732 
	C195.274017,505.808868 209.252609,508.086609 223.051437,511.039764 
	C223.947372,511.231476 224.751526,511.852051 225.299194,512.636597 
	C150.406296,513.000000 75.812599,513.000000 1.000000,513.000000 
	C1.000000,438.645905 1.000000,364.291626 0.999998,289.468658 
z"/>
<path fill="#000000" opacity="1.000000" stroke="none" 
	d="
M289.468658,513.000000 
	C289.605560,512.337219 290.132446,511.220398 290.831818,511.099243 
	C292.720093,510.772247 294.681763,510.869080 297.276917,510.415253 
	C309.510864,507.415253 321.204071,505.238251 332.625458,502.078613 
	C350.442535,497.149750 367.212036,489.626617 383.309601,480.465057 
	C399.169708,471.438629 414.183685,461.184631 427.494995,448.812592 
	C438.013214,439.036530 447.790894,428.351471 457.050720,417.356995 
	C476.401367,394.381348 490.745544,368.376862 499.853943,339.787689 
	C504.281281,325.891235 506.770172,311.377258 510.136597,297.142822 
	C510.864319,294.214325 511.592041,291.285858 512.659912,288.678680 
	C513.000000,363.593719 513.000000,438.187408 513.000000,513.000000 
	C438.645905,513.000000 364.291626,513.000000 289.468658,513.000000 
z"/>
<path fill="#000000" opacity="1.000000" stroke="none" 
	d="
M224.531342,1.000003 
	C224.332474,1.663613 223.722260,2.834965 222.989136,2.917732 
	C192.058243,6.409754 163.102783,16.180195 135.763077,30.764431 
	C119.634995,39.367874 104.651329,49.722637 90.727264,61.671478 
	C68.700058,80.573982 50.078663,102.336487 35.408222,127.312859 
	C21.334688,151.273010 11.386582,176.941055 5.977784,204.285324 
	C4.633017,211.083832 3.132549,217.851532 1.351823,224.316696 
	C1.000000,149.739456 1.000000,75.478920 1.000000,1.000000 
	C75.354088,1.000000 149.708389,1.000000 224.531342,1.000003 
z"/>
<path fill="#0150C3" opacity="1.000000" stroke="none" 
	d="
M509.785522,297.090027 
	C506.770172,311.377258 504.281281,325.891235 499.853943,339.787689 
	C490.745544,368.376862 476.401367,394.381348 457.050720,417.356995 
	C447.790894,428.351471 438.013214,439.036530 427.494995,448.812592 
	C414.183685,461.184631 399.169708,471.438629 383.309601,480.465057 
	C367.212036,489.626617 350.442535,497.149750 332.625458,502.078613 
	C321.204071,505.238251 309.510864,507.415253 297.512115,510.067780 
	C295.498474,508.400452 293.962799,506.647522 292.318634,505.003021 
	C216.406097,429.073639 140.480148,353.157654 64.588211,277.207672 
	C62.864758,275.482880 61.513912,273.385773 60.381386,271.156281 
	C103.107925,296.003754 145.442322,321.157257 188.576401,346.785919 
	C188.576401,334.501007 188.432816,323.379639 188.661652,312.265930 
	C188.732651,308.817322 187.579041,306.910950 184.655289,305.158234 
	C159.842178,290.283234 135.121735,275.253632 110.379196,260.260986 
	C108.638565,259.206238 106.943390,258.076477 104.864960,256.750580 
	C131.989655,239.901810 158.373657,223.450806 184.854538,207.157272 
	C187.607727,205.463242 188.714447,203.716415 188.661346,200.440506 
	C188.485962,189.623474 188.676773,178.800537 188.726990,167.979858 
	C190.363480,169.375641 192.089737,170.679779 193.622849,172.181137 
	C212.884399,191.043839 232.118057,209.935028 251.646637,229.335022 
	C230.084915,283.424286 208.235428,336.997467 186.258118,390.884064 
	C195.625336,394.700806 204.443573,398.293823 213.407394,401.946198 
	C228.276794,365.605377 242.920990,329.814941 257.759216,293.697937 
	C258.278168,292.609497 258.613190,291.851746 258.926483,291.085144 
	C281.718597,235.315781 304.508942,179.545700 327.299469,123.775696 
	C328.717773,124.905441 330.261505,125.909660 331.536102,127.183228 
	C365.555115,161.175186 399.551147,195.190125 433.523773,229.228424 
	C434.793732,230.500839 435.790070,232.046371 436.588196,233.765411 
	C399.439178,211.913071 362.615936,189.759933 325.079498,167.177750 
	C325.079498,179.107437 325.212372,189.912338 324.995941,200.710220 
	C324.933624,203.818634 326.045837,205.463699 328.597443,206.997253 
	C338.436920,212.910995 348.153412,219.029510 357.907410,225.085190 
	C374.698792,235.509995 391.483948,245.944901 408.902069,256.767212 
	C406.898346,258.052399 405.428986,259.041595 403.915802,259.958466 
	C378.728668,275.219910 353.522797,290.450653 328.380615,305.785767 
	C327.015839,306.618164 325.256470,308.288025 325.230133,309.599152 
	C324.987732,321.672485 325.087280,333.752747 325.087280,346.581482 
	C327.395081,345.356781 328.992706,344.592285 330.509583,343.691742 
	C369.993225,320.250732 409.295013,296.494263 449.083344,273.582642 
	C457.623596,268.664856 462.439270,263.632599 460.473999,253.621719 
	C460.227905,252.367981 460.633179,250.986389 460.736633,249.664032 
	C473.925079,262.685028 487.092834,275.727112 500.317932,288.710724 
	C503.252869,291.592072 506.390289,294.267181 509.785522,297.090027 
z"/>
<path fill="#FDF4CB" opacity="1.000000" stroke="none" 
	d="
M460.520935,249.453049 
	C460.633179,250.986389 460.227905,252.367981 460.473999,253.621719 
	C462.439270,263.632599 457.623596,268.664856 449.083344,273.582642 
	C409.295013,296.494263 369.993225,320.250732 330.509583,343.691742 
	C328.992706,344.592285 327.395081,345.356781 325.087280,346.581482 
	C325.087280,333.752747 324.987732,321.672485 325.230133,309.599152 
	C325.256470,308.288025 327.015839,306.618164 328.380615,305.785767 
	C353.522797,290.450653 378.728668,275.219910 403.915802,259.958466 
	C405.428986,259.041595 406.898346,258.052399 408.902069,256.767212 
	C391.483948,245.944901 374.698792,235.509995 357.907410,225.085190 
	C348.153412,219.029510 338.436920,212.910995 328.597443,206.997253 
	C326.045837,205.463699 324.933624,203.818634 324.995941,200.710220 
	C325.212372,189.912338 325.079498,179.107437 325.079498,167.177750 
	C362.615936,189.759933 399.439178,211.913071 436.617096,234.115265 
	C436.971741,234.164337 437.019897,234.060318 437.089966,234.357666 
	C437.601746,234.790527 438.043396,234.926056 438.485077,235.061600 
	C444.317719,238.728409 450.164459,242.373123 455.973358,246.077148 
	C457.478149,247.036682 458.864471,248.182053 460.520935,249.453049 
z"/>
<path fill="#FDFDFE" opacity="1.000000" stroke="none" 
	d="
M188.374985,167.987976 
	C188.676773,178.800537 188.485962,189.623474 188.661346,200.440506 
	C188.714447,203.716415 187.607727,205.463242 184.854538,207.157272 
	C158.373657,223.450806 131.989655,239.901810 104.864960,256.750580 
	C106.943390,258.076477 108.638565,259.206238 110.379196,260.260986 
	C135.121735,275.253632 159.842178,290.283234 184.655289,305.158234 
	C187.579041,306.910950 188.732651,308.817322 188.661652,312.265930 
	C188.432816,323.379639 188.576401,334.501007 188.576401,346.785919 
	C145.442322,321.157257 103.107925,296.003754 60.416061,270.791504 
	C60.058605,270.732788 59.987869,270.852020 59.944206,270.569611 
	C59.275768,270.120361 58.650993,269.953552 58.026222,269.786743 
	C58.026226,269.786713 58.004246,269.926544 58.048019,269.603638 
	C57.676147,269.232147 57.260498,269.183594 56.844849,269.135071 
	C52.792915,266.924591 54.064262,262.997864 53.517349,259.516602 
	C52.272022,251.589767 55.469078,247.296585 62.456280,243.169357 
	C102.482216,219.526581 142.126297,195.237457 181.915222,171.192902 
	C183.878250,170.006653 185.983810,169.056290 188.374985,167.987976 
z"/>
<path fill="#FDF4CB" opacity="1.000000" stroke="none" 
	d="
M327.124817,123.475006 
	C304.508942,179.545700 281.718597,235.315781 258.926483,291.085144 
	C258.613190,291.851746 258.278168,292.609497 257.622742,293.307526 
	C257.195221,291.087860 257.021271,288.932343 257.013123,286.776184 
	C256.927551,264.142639 256.868500,241.509003 256.802094,218.875397 
	C261.537354,206.856796 266.176544,194.799255 271.028259,182.827835 
	C280.554321,159.322479 290.198608,135.865021 300.106934,111.622047 
	C309.196411,115.533806 318.073273,119.354057 327.124817,123.475006 
z"/>
<path fill="#FDFDFE" opacity="1.000000" stroke="none" 
	d="
M256.549255,219.103500 
	C256.868500,241.509003 256.927551,264.142639 257.013123,286.776184 
	C257.021271,288.932343 257.195221,291.087860 257.428711,293.634094 
	C242.920990,329.814941 228.276794,365.605377 213.407394,401.946198 
	C204.443573,398.293823 195.625336,394.700806 186.258118,390.884064 
	C208.235428,336.997467 230.084915,283.424286 251.943268,229.497162 
	C253.400208,225.872665 254.848312,222.602127 256.549255,219.103500 
z"/>
<path fill="#0150C3" opacity="1.000000" stroke="none" 
	d="
M58.202919,270.050629 
	C58.650993,269.953552 59.275768,270.120361 60.000862,270.609558 
	C59.527328,270.726105 58.953472,270.520325 58.202919,270.050629 
z"/>
<path fill="#0150C3" opacity="1.000000" stroke="none" 
	d="
M438.235840,234.861786 
	C438.043396,234.926056 437.601746,234.790527 437.039520,234.330475 
	C437.274841,234.224640 437.630737,234.443314 438.235840,234.861786 
z"/>
<path fill="#0150C3" opacity="1.000000" stroke="none" 
	d="
M57.029388,269.318970 
	C57.260498,269.183594 57.676147,269.232147 58.118095,269.613586 
	C57.834240,269.798584 57.524086,269.650726 57.029388,269.318970 
z"/>
</svg>